<svg xmlns="http://www.w3.org/2000/svg" viewBox="0 0 150 200" width="150" height="200">
  <defs><clipPath id="cropSelfie"><rect x="30" y="20" width="120" height="180"/></clipPath></defs>
  <rect width="150" height="200" fill="#ffffff" rx="4"/>
  <g clip-path="url(#cropSelfie)">
    <ellipse cx="75" cy="210" rx="58" ry="45" fill="#2c2c2c"/>
    <path d="M55 170 L75 180 L95 170 L95 175 L75 185 L55 175 Z" fill="#f0f0f0"/>
    <rect x="63" y="140" width="24" height="32" rx="8" fill="#1a1a1a"/>
    <ellipse cx="75" cy="110" rx="32" ry="38" fill="#1a1a1a"/>
    <ellipse cx="75" cy="78" rx="34" ry="16" fill="#111"/>
    <ellipse cx="75" cy="85" rx="35" ry="12" fill="#1a1a1a"/>
    <ellipse cx="42" cy="112" rx="6" ry="10" fill="#1a1a1a"/>
    <ellipse cx="108" cy="112" rx="6" ry="10" fill="#1a1a1a"/>
    <ellipse cx="62" cy="106" rx="7" ry="3" fill="#222"/>
    <ellipse cx="88" cy="106" rx="7" ry="3" fill="#222"/>
    <line x1="75" y1="108" x2="75" y2="120" stroke="#222" stroke-width="1.5" stroke-linecap="round"/>
    <path d="M70 120 Q75 124 80 120" fill="none" stroke="#222" stroke-width="1"/>
    <path d="M65 130 Q75 135 85 130" fill="none" stroke="#222" stroke-width="1.2"/>
  </g>
  <!-- Cut indicators -->
  <rect x="0" y="0" width="30" height="200" fill="#fde8e8" opacity="0.85"/>
  <line x1="30" y1="0" x2="30" y2="200" stroke="#e74c3c" stroke-width="2.5" stroke-dasharray="6,4"/>
  <rect x="2" y="2" width="146" height="196" rx="3" fill="none" stroke="#e74c3c" stroke-width="3"/>
  <circle cx="130" cy="18" r="12" fill="#e74c3c"/>
  <text x="130" y="23" text-anchor="middle" font-family="sans-serif" font-size="14" fill="white" font-weight="bold">✗</text>
</svg>
