<svg xmlns="http://www.w3.org/2000/svg" viewBox="0 0 150 200" width="150" height="200">
  <rect width="150" height="200" fill="#ffffff" rx="4"/>
  <!-- Person in grayscale / filtered look -->
  <ellipse cx="75" cy="210" rx="58" ry="45" fill="#555"/>
  <path d="M55 170 L75 180 L95 170 L95 175 L75 185 L55 175 Z" fill="#ccc"/>
  <rect x="63" y="140" width="24" height="32" rx="8" fill="#444"/>
  <ellipse cx="75" cy="110" rx="32" ry="38" fill="#444"/>
  <ellipse cx="75" cy="78" rx="34" ry="16" fill="#3a3a3a"/>
  <ellipse cx="75" cy="85" rx="35" ry="12" fill="#444"/>
  <ellipse cx="42" cy="112" rx="6" ry="10" fill="#444"/>
  <ellipse cx="108" cy="112" rx="6" ry="10" fill="#444"/>
  <ellipse cx="62" cy="106" rx="7" ry="3" fill="#4a4a4a"/>
  <ellipse cx="88" cy="106" rx="7" ry="3" fill="#4a4a4a"/>
  <line x1="75" y1="108" x2="75" y2="120" stroke="#4a4a4a" stroke-width="1.5" stroke-linecap="round"/>
  <path d="M70 120 Q75 124 80 120" fill="none" stroke="#4a4a4a" stroke-width="1"/>
  <path d="M65 130 Q75 135 85 130" fill="none" stroke="#4a4a4a" stroke-width="1.2"/>
  <!-- Filter overlay effect (sepia/grayscale) -->
  <rect width="150" height="200" fill="#8B8682" opacity="0.25" rx="4"/>
  <!-- "B&W / FILTER" indicator -->
  <text x="75" y="15" text-anchor="middle" font-family="sans-serif" font-size="9" fill="#999" font-style="italic">B &amp; W</text>

  <rect x="2" y="2" width="146" height="196" rx="3" fill="none" stroke="#e74c3c" stroke-width="3"/>
  <circle cx="130" cy="18" r="12" fill="#e74c3c"/>
  <text x="130" y="23" text-anchor="middle" font-family="sans-serif" font-size="14" fill="white" font-weight="bold">✗</text>
</svg>
